<?xml version="1.0" encoding="UTF-8"?>
<svg id="Layer_2" xmlns="http://www.w3.org/2000/svg" viewBox="0 0 136.91 49.22">
  <defs>
    <style>
      .cls-1 {
        stroke: #fff;
      }

      .cls-1, .cls-2 {
        fill: none;
        stroke-miterlimit: 10;
      }

      .cls-2 {
        stroke: #24ff00;
      }
    </style>
  </defs>
  <g id="Layer_1-2" data-name="Layer_1">
    <g>
      <path class="cls-1" d="M23.68,15.15c.45-3.4.2-6.61-4.84-6.61h-1.75c-2.89,0-4.39.6-5.35,1.86-.68.89-1.67,1.48-2.79,1.48h-.83c-2.89,0-4.63-3.26-2.97-5.63C7.51,2.88,11.43.5,16.9.5h4.25c8.43,0,11.81,6.17,11,12.28l-2.35,17.85c-.62,4.32-4.42,5.86-6.23,5.86h-14.64C2.59,36.5-.15,31.52.63,25.63s4.88-10.41,10.94-10.41l12.11-.07ZM11.22,29.2h7.46c1.8,0,3.33-1.34,3.56-3.13h0c.28-2.15-1.39-4.06-3.56-4.06h-6.49c-1.19,0-3.66,1.19-3.98,3.62s1.82,3.57,3.01,3.57Z"/>
      <path class="cls-1" d="M39.91,36.5h-1.07c-2.17,0-3.85-1.91-3.56-4.06l3.79-28.81c.24-1.79,1.76-3.13,3.56-3.13h1.07c2.17,0,3.85,1.91,3.56,4.06l-3.79,28.81c-.24,1.79-1.76,3.13-3.56,3.13Z"/>
      <path class="cls-1" d="M71.14.5c.24,0,.47,0,.7.04,3.48.45,10.2,3.55,9.41,12.47l-3.1,23.54c-1.01,7.64-6.3,12.17-13.09,12.17h-11.7c-2.38,0-4.21-2.09-3.9-4.45h0c.26-1.96,1.93-3.42,3.9-3.42h11.44c2.83,0,5.34-1.87,5.76-5.04l.06-.45h-10.53c-6.34,0-10.9-4.47-9.81-12.73l1.24-9.4c1.09-8.26,6.83-12.73,13.17-12.73h6.47ZM73.11,15.91c.49-4.44-.52-7.54-5.17-7.54h-2.55c-5.12,0-5.92,5.95-6.04,6.77l-.87,6.59c-.42,3.17,1.56,5.77,4.39,5.77h5.27c1.97,0,3.64-1.46,3.9-3.42l1.08-8.17Z"/>
    </g>
    <path class="cls-2" d="M132.82,36.37h-10.43c-2.17,0-3.84-1.91-3.55-4.05h0c.23-1.78,1.76-3.12,3.55-3.12h10.43c2.17,0,3.84,1.91,3.55,4.05h0c-.23,1.78-1.76,3.12-3.55,3.12Z"/>
    <path class="cls-1" d="M107.3,16.3c.45-3.4.2-6.61-4.84-6.61h-1.75c-2.89,0-4.39.6-5.35,1.86-.68.89-1.67,1.48-2.79,1.48h-.83c-2.89,0-4.63-3.26-2.97-5.63,2.36-3.37,6.28-5.75,11.75-5.75h4.25c8.43,0,11.81,6.17,11,12.28l-2.35,17.85c-.62,4.32-4.42,5.86-6.23,5.86h-14.64c-6.34,0-9.08-4.98-8.3-10.87s4.88-10.41,10.94-10.41l12.11-.07ZM94.85,30.35h7.46c1.8,0,3.33-1.34,3.56-3.13h0c.28-2.15-1.39-4.06-3.56-4.06h-6.49c-1.19,0-3.66,1.19-3.98,3.62s1.82,3.57,3.01,3.57Z"/>
  </g>
</svg>